<svg xmlns="http://www.w3.org/2000/svg" width="17" height="35" fill="none"><g clip-path="url(#a)"><path fill="#fff" d="M16.341 28.884c.417.433.651 1.018.651 1.627 0 .61-.234 1.195-.65 1.628-.206.214-.45.384-.72.5a2.156 2.156 0 0 1-1.704 0 2.208 2.208 0 0 1-.72-.5L.65 19.132A2.347 2.347 0 0 1 0 17.504c0-.61.234-1.194.65-1.627L13.21 2.86c.205-.213.45-.383.719-.499a2.155 2.155 0 0 1 1.701 0c.27.116.514.286.72.5.417.432.65 1.017.65 1.627 0 .61-.233 1.194-.65 1.627L5.364 17.504l10.977 11.38Z"/></g><defs><clipPath id="a"><path fill="#fff" d="M17 35H0V0h17z"/></clipPath></defs></svg>